<svg xmlns="http://www.w3.org/2000/svg" viewBox="0 0 64 64">
  <defs>
    <linearGradient id="g" x1="0" y1="0" x2="1" y2="1">
      <stop offset="0" stop-color="#8fb6e0"/>
      <stop offset="1" stop-color="#4f83c4"/>
    </linearGradient>
  </defs>
  <rect width="64" height="64" rx="14" fill="#181437"/>
  <path d="M32 8c5 8 20 9 20 24 0 9-7 16-14 19-2 .8-4 .8-6 0C25 48 18 41 18 32c0-15 9-18 14-24z" fill="url(#g)"/>
  <path d="M32 22c3 4.5 11 5.4 11 13.6 0 5-3.9 8.7-8.1 10.3-1.1.5-2.3.5-3.4 0-4.2-1.6-8.1-5.2-8.1-10.3 0-8.2 8-9.1 11-13.6z" fill="#fff" opacity=".92"/>
</svg>
